PathFileType  4	(X/Y/Z) C:\Users\antoi\Documents\MyRepositories\mobilecap\ResultsAnalysis
DataRate	CameraRate	NumFrames	NumMarkers	Units	OrigDataRate	OrigDataStartFrame	OrigNumFrames
100.0	100.0	6	51	mm	100.0	238	271
Frame#	Time	r_knee			r_shank_antsup			r_ankle			r_calc			r_5meta			r_toe			L_knee			L_shank_antsup			L_ankle			L_calc			L_5meta			L_toe			r_sh2			r_sh3			r_sh4			L_sh2			L_sh3			r_thigh1			r_thigh2			r_thigh3			r_thigh4			r_thigh5			L_thigh1			L_thigh2			L_thigh3			L_thigh4			r.ASIS			r.PSIS			L.ASIS			L.PSIS			C7			R_Shoulder			L_Shoulder			R_Sternum			L_Sternum			R_humerus			R_elbow_med			R_elbow_lat			R_forearm			R_wrist_radius			R_wrist_ulna			L_humerus			L_elbow_med			L_elbow_lat			L_forearm			L_wrist_radius			L_wrist_ulna			R_HJC			L_HJC			R_HJC_reg			L_HJC_reg			
		X1	Y1	Z1	X2	Y2	Z2	X3	Y3	Z3	X4	Y4	Z4	X5	Y5	Z5	X6	Y6	Z6	X7	Y7	Z7	X8	Y8	Z8	X9	Y9	Z9	X10	Y10	Z10	X11	Y11	Z11	X12	Y12	Z12	X13	Y13	Z13	X14	Y14	Z14	X15	Y15	Z15	X16	Y16	Z16	X17	Y17	Z17	X18	Y18	Z18	X19	Y19	Z19	X20	Y20	Z20	X21	Y21	Z21	X22	Y22	Z22	X23	Y23	Z23	X24	Y24	Z24	X25	Y25	Z25	X26	Y26	Z26	X27	Y27	Z27	X28	Y28	Z28	X29	Y29	Z29	X30	Y30	Z30	X31	Y31	Z31	X32	Y32	Z32	X33	Y33	Z33	X34	Y34	Z34	X35	Y35	Z35	X36	Y36	Z36	X37	Y37	Z37	X38	Y38	Z38	X39	Y39	Z39	X40	Y40	Z40	X41	Y41	Z41	X42	Y42	Z42	X43	Y43	Z43	X44	Y44	Z44	X45	Y45	Z45	X46	Y46	Z46	X47	Y47	Z47	X48	Y48	Z48	X49	Y49	Z49	X50	Y50	Z50	X51	Y51	Z51	

238	2.37000000	-280.37383	770.41787	-360.42467	-241.28523	680.14877	-351.40273	-310.23612	359.31079	-344.14480	-357.15664	381.94427	-402.69072	-261.95672	224.13754	-319.35416	-201.70861	237.25427	-350.86596	-240.75359	784.33868	-741.96848	-197.28272	707.38610	-749.15367	-224.58708	369.16382	-779.99890	-289.86954	375.72238	-713.41877	-172.37286	242.28812	-799.20559	-106.14107	250.58342	-763.54073	-242.16738	566.98611	-339.73459	-310.97496	683.14762	-323.78230	-319.95310	569.15559	-311.67449	-284.90351	714.40540	-772.95099	-276.98468	593.69272	-792.89689	-246.07855	1052.46486	-356.23292	-233.45812	942.10398	-358.42106	-288.43004	910.33003	-336.82679	-358.47511	1035.30708	-364.90230	-336.25636	921.16907	-365.26571	-187.57498	1036.36509	-733.05351	-164.43154	897.37877	-726.53867	-291.66362	1019.28280	-763.41048	-270.36549	887.73329	-750.95692	-206.08966	1239.89949	-415.55829	-388.98818	1288.58536	-517.05049	-178.07162	1254.14137	-669.00323	-376.29549	1289.68720	-602.26238	-356.99972	1735.51768	-528.57228	-306.33238	1768.62073	-414.41295	-290.85550	1750.24932	-632.36051	-219.77929	1690.72740	-489.51395	-215.34167	1696.94295	-530.04877	-259.30509	1830.72666	-373.99079	-65.39016	1887.97823	-303.77343	-112.91611	1915.37335	-261.43870	-128.61526	1997.81646	-306.09670	-96.92575	2119.09126	-416.67410	-76.48753	2138.54848	-374.83762	-237.59785	1815.51167	-665.84115	-53.31041	1888.08303	-714.45428	-112.70643	1931.58026	-747.88908	-124.85823	1987.75093	-695.35919	-101.52654	2100.57141	-564.11427	-79.41549	2127.40760	-605.48904	-284.31797	1158.33029	-453.91841	-262.99264	1169.21006	-641.96301	-280.63091	1174.30676	-463.81567	-255.81045	1176.46943	-630.51599	
239	2.38000000	-283.01985	772.47720	-359.72977	-244.70635	682.98072	-349.37107	-310.48323	361.87129	-344.74257	-356.10630	383.80618	-404.79723	-261.68930	226.59362	-319.36934	-200.96485	240.02623	-349.72818	-241.46014	786.63255	-741.40872	-198.92928	709.74088	-749.75096	-225.07746	371.83399	-779.50677	-289.55754	378.53841	-712.70698	-173.40054	245.36238	-800.81895	-106.80669	253.12303	-765.72973	-244.76177	569.71578	-337.97922	-314.83421	685.48231	-324.15203	-323.58465	570.83001	-312.84113	-287.11327	716.53845	-771.40629	-279.39958	595.65253	-791.02685	-247.31169	1054.93078	-355.82418	-234.37107	944.60303	-358.11913	-288.97165	912.63236	-335.94733	-359.86297	1037.39512	-362.53361	-337.17135	923.39067	-363.70982	-188.13154	1038.93351	-731.59034	-164.42851	900.13913	-724.97008	-291.91663	1021.45372	-762.75065	-270.09264	889.97078	-750.17508	-207.89029	1242.30514	-415.82578	-391.14104	1289.67623	-515.53424	-179.24642	1256.38293	-666.68704	-377.91896	1291.17188	-602.05187	-357.64015	1738.44043	-528.32514	-307.02745	1771.18140	-414.40658	-291.24038	1752.48778	-632.34742	-220.56818	1693.30279	-488.99966	-215.90297	1699.23244	-529.68547	-259.60469	1833.44638	-374.85923	-66.77730	1890.62430	-301.61900	-114.98288	1919.13161	-260.54394	-129.23589	2001.31250	-306.11040	-95.34720	2120.90743	-417.60300	-75.36525	2140.77684	-375.40861	-237.53048	1817.11119	-665.80699	-52.45374	1888.04004	-716.19819	-112.03893	1932.32713	-748.42161	-123.55286	1988.01385	-695.21097	-99.46964	2099.37842	-564.08665	-77.37718	2126.24661	-605.88195	-285.61182	1160.15319	-452.96794	-263.92947	1171.15398	-640.96467	-281.55564	1176.39601	-464.14654	-256.33435	1179.23559	-629.10833	
240	2.39000000	-284.93326	773.72827	-359.14947	-247.74121	684.41541	-347.16254	-310.89565	363.41162	-345.67689	-354.71533	384.79958	-407.47132	-261.99647	227.87981	-319.51651	-200.48019	241.61522	-348.15669	-242.11715	787.92822	-740.67892	-200.03506	711.03474	-749.72040	-225.83528	373.57999	-778.76167	-289.60707	379.96466	-711.67386	-174.60843	247.57804	-802.36183	-107.60805	254.84530	-768.02809	-247.32093	570.93063	-336.51738	-318.56004	686.24457	-324.79844	-326.92572	571.30947	-314.15267	-288.53224	717.75437	-769.94920	-281.02516	596.81321	-789.56905	-248.39770	1056.53607	-355.28449	-234.99011	946.33532	-357.77959	-289.17431	914.31657	-334.96493	-361.03818	1038.48124	-360.37754	-337.74500	924.61219	-361.98154	-188.66078	1040.47958	-730.13545	-164.47908	901.86680	-723.41658	-292.16315	1022.69972	-762.13701	-270.00064	891.15547	-749.15112	-209.94593	1243.95542	-416.14300	-393.09363	1289.94933	-513.95846	-180.44790	1257.70303	-664.30854	-379.89414	1292.48466	-602.84794	-358.27329	1740.34085	-528.24234	-307.55497	1772.98376	-414.12978	-291.56059	1753.67808	-632.35184	-221.42362	1694.81315	-488.30798	-216.33790	1700.45179	-528.92117	-259.13567	1834.84313	-376.17731	-67.91646	1892.44078	-299.25745	-116.83263	1921.97753	-259.78976	-129.86187	2003.62969	-306.12126	-93.98139	2121.70857	-418.33956	-74.42979	2141.90075	-375.86149	-237.30239	1817.90044	-666.10489	-51.41616	1887.04256	-717.77075	-111.05814	1932.07208	-748.93262	-122.15110	1987.46963	-695.44831	-97.98696	2097.62162	-563.97906	-75.26082	2124.33415	-605.64756	-287.31573	1161.29880	-452.25356	-265.02450	1172.39907	-640.17334	-281.81628	1176.96037	-464.27971	-257.54616	1181.60696	-627.61184	
241	2.40000000	-286.28939	773.97807	-358.88593	-250.10626	684.58041	-345.40285	-311.10355	363.73193	-346.57020	-353.29501	384.84336	-409.94193	-262.41525	228.18934	-319.56919	-200.05980	242.13752	-346.66535	-242.64793	788.29711	-739.69586	-200.55865	711.37198	-748.85389	-226.67444	374.61469	-777.95961	-289.96062	380.05943	-710.22004	-175.93661	248.97557	-803.66235	-108.51480	255.71580	-770.06878	-249.55362	570.83118	-335.69811	-321.58656	685.81412	-325.32539	-329.47325	570.69163	-315.29974	-289.06151	718.12211	-768.72412	-281.68534	597.28622	-788.62948	-249.62338	1057.23200	-354.67149	-235.53657	947.08200	-357.59728	-289.30862	915.28204	-333.96104	-362.12788	1038.52375	-358.59920	-338.27226	924.76773	-360.36345	-189.35491	1041.04979	-728.72077	-164.83603	902.47889	-721.97351	-292.61665	1023.02353	-761.41556	-270.19981	891.46147	-748.08996	-212.29511	1244.84184	-416.10199	-394.90705	1289.61766	-512.48725	-181.67796	1258.09155	-661.93703	-381.73242	1293.53364	-603.44711	-358.95920	1741.13996	-528.24796	-308.24691	1774.02707	-413.61932	-291.74556	1753.84505	-632.54967	-222.39762	1695.23834	-487.50114	-216.98379	1700.43935	-528.16231	-258.78570	1835.58007	-376.93447	-68.80696	1893.19930	-296.79523	-118.49603	1923.83563	-258.64303	-130.46499	2004.55078	-306.22513	-92.98839	2121.37573	-418.64678	-73.75687	2141.82194	-376.10978	-236.79027	1817.71228	-666.48404	-50.24333	1885.01403	-718.87850	-109.83950	1930.72652	-749.25125	-120.57143	1985.92453	-695.95005	-97.07682	2095.46682	-563.70897	-73.15402	2121.93328	-604.80616	-289.36520	1161.78840	-451.43316	-266.29218	1172.95032	-639.25500	-282.24070	1176.28738	-464.42027	-258.80034	1183.26487	-626.32396	
242	2.41000000	-287.26521	772.94081	-358.84874	-251.66753	683.70740	-344.33457	-310.87539	362.79259	-347.55960	-352.12896	383.79312	-411.73099	-262.45086	227.66475	-319.41630	-199.54369	241.68291	-345.54596	-242.97107	787.79036	-738.55961	-200.63070	710.83652	-747.20110	-227.46778	374.77212	-777.02999	-290.46211	379.31763	-708.67257	-177.36477	249.56288	-804.74760	-109.65267	255.51631	-771.46604	-251.03366	569.74704	-335.33409	-323.68760	684.46519	-325.65811	-330.98046	569.13341	-316.22013	-288.87816	717.77345	-767.94158	-281.54080	597.07371	-788.10663	-251.17316	1056.94340	-354.02119	-236.34491	946.76610	-357.33790	-289.61437	914.89540	-332.98139	-363.43039	1037.54332	-357.02504	-338.97518	923.81581	-359.04508	-190.36671	1040.59225	-727.31218	-165.57149	902.00815	-720.74981	-293.44931	1022.41949	-760.41847	-270.74776	890.97451	-747.20711	-214.95984	1244.89476	-415.36954	-396.55013	1288.86557	-511.13023	-182.88538	1257.61187	-659.54320	-383.17796	1294.40045	-603.29890	-359.74315	1740.83501	-528.30439	-309.11422	1774.04684	-413.45525	-291.82757	1752.91814	-632.86495	-223.46271	1694.62644	-486.79492	-218.26329	1699.15393	-528.07475	-258.76289	1835.76462	-377.05758	-69.52241	1892.76755	-294.35923	-119.96537	1924.52783	-257.09681	-131.12727	2004.05971	-306.28771	-92.39437	2119.79691	-418.71989	-73.38189	2140.48388	-376.14006	-235.94682	1816.39682	-666.64653	-48.98246	1881.96765	-719.28135	-108.48183	1928.25439	-749.33610	-118.84683	1983.34340	-696.34153	-96.48957	2092.76006	-563.70797	-71.77854	2118.84506	-604.49375	-291.77690	1161.63359	-450.34189	-267.72418	1172.89778	-638.03458	-283.18231	1174.46876	-464.53057	-259.85984	1184.12623	-625.31338	
243	2.42000000	-288.02141	770.87774	-358.71239	-252.47977	681.94839	-343.85356	-310.31388	360.80910	-348.47609	-351.25611	381.64588	-412.80324	-261.89163	226.29915	-319.16681	-198.81505	240.29380	-344.81865	-243.22714	786.44635	-737.44044	-200.50312	709.42676	-745.12144	-228.31280	373.71699	-775.72294	-291.13829	377.91500	-707.25119	-178.82339	249.03963	-805.27773	-111.02693	254.09689	-771.88982	-251.54115	567.85714	-335.34225	-324.88478	682.38467	-325.74645	-331.53417	566.83565	-316.82448	-288.41297	716.66282	-767.49114	-280.97140	596.01872	-787.78832	-252.98329	1055.54753	-353.35408	-237.58167	945.40322	-356.79250	-290.38545	912.80308	-332.22759	-365.04416	1035.54037	-355.78582	-339.99877	921.82825	-358.12218	-191.53918	1039.09695	-726.07763	-166.64856	900.59758	-719.78313	-294.58174	1020.96910	-759.29529	-271.74407	889.59499	-746.33322	-217.80317	1243.97479	-413.98318	-398.07332	1287.90633	-509.97637	-184.07207	1256.33284	-657.16713	-384.39164	1295.04563	-602.86206	-360.63163	1739.49030	-528.40714	-310.11578	1772.95807	-413.67937	-291.93732	1750.86141	-633.00051	-224.68807	1692.96735	-486.20497	-219.99290	1697.03148	-528.28805	-258.02212	1834.17804	-377.98200	-70.24019	1891.10837	-292.05639	-121.18274	1923.57965	-256.00518	-131.91771	2002.14392	-306.07791	-92.17754	2116.96625	-418.61233	-73.26865	2137.83109	-375.98068	-234.95442	1813.98839	-666.58127	-47.70190	1877.93914	-718.97057	-106.89692	1924.59874	-749.39376	-117.24411	1979.76745	-696.67966	-96.08872	2089.30172	-564.12655	-70.98164	2114.79682	-604.64287	-294.63193	1160.84049	-449.16692	-269.34822	1172.27945	-636.68714	-284.66434	1171.86193	-464.29277	-261.08663	1184.15818	-624.33881	
